<?xml version="1.0" standalone="no"?><!DOCTYPE svg PUBLIC "-//W3C//DTD SVG 1.1//EN" "http://www.w3.org/Graphics/SVG/1.1/DTD/svg11.dtd"><svg t="1779451764779" class="icon" viewBox="0 0 1024 1024" version="1.1" xmlns="http://www.w3.org/2000/svg" p-id="8140" xmlns:xlink="http://www.w3.org/1999/xlink" width="200" height="200"><path d="M739.2 838.4V371.2c0-105.6-86.4-192-192-192H6.4c-3.2 0-6.4 3.2-6.4 6.4v649.6c0 3.2 3.2 6.4 6.4 6.4h144c3.2 0 6.4-3.2 6.4-6.4v-512c0-3.2 3.2-6.4 6.4-6.4h310.4c57.6 0 105.6 48 105.6 105.6v412.8c0 3.2 3.2 6.4 6.4 6.4h140.8c9.6 3.2 12.8 0 12.8-3.2m-291.2 0c0 3.2-3.2 6.4-6.4 6.4h-144c-3.2 0-6.4-3.2-6.4-6.4V444.8c0-3.2 3.2-6.4 6.4-6.4h144c3.2 0 6.4 3.2 6.4 6.4v393.6z m576 0c0 3.2-3.2 6.4-6.4 6.4h-144c-3.2 0-6.4-3.2-6.4-6.4V185.6c0-3.2 3.2-6.4 6.4-6.4h144c3.2 0 6.4 3.2 6.4 6.4v652.8z" fill="#888888" p-id="8141"></path></svg>